<svg xmlns="http://www.w3.org/2000/svg" viewBox="0 0 60 60">
  <defs>
    <style>
      .cls-1 {
        fill: #fff;
      }

      .cls-2 {
        fill: #e00c00;
      }
    </style>
  </defs>
  <g id="Group_532" data-name="Group 532" transform="translate(-75 -2164)">
    <circle id="Ellipse_2" data-name="Ellipse 2" class="cls-1" cx="30" cy="30" r="30" transform="translate(75 2164)"/>
    <path id="Path_162" data-name="Path 162" class="cls-2" d="M50,37.473A23.007,23.007,0,0,1,30.51,60.181a5.305,5.305,0,0,0,.056-1.572l-.152-1.3a20.082,20.082,0,0,0,10.245-5.044,2.718,2.718,0,0,1-.5-.562c-.744-1.085.229-2.162.229-3.111,0-.931-1.876-.854-1.945-1.471-.237-2.135,1.31-2.164,2.135-2.989s-.815-2.7-1.875-2.579-4.069-.493-3.794-2.79c.334-2.8-3.564-2.551-4.123-3.857a3.749,3.749,0,0,1,2.3-4.768c2.5-.751,4.962-2.79,4.769-5.06a8.5,8.5,0,0,0-3.3-6.266,19.98,19.98,0,0,0-6.395-1.434c-2.008.079-3.773.526-3.693,1.445.2,2.253,6.6,2.838,5.529,4.944-.56,1.1-4.767,2.647-3.981,4.281.511,1.063,1.768.152,1.3,2.192-.216.939-1.039,2.7-2.3,2.816-1.294.121-2.372-3.308-5.895-3.42-1.665-.053-4.012,2.6-2.019,4.48,1.206,1.139,3.47-1.369,4.138.59.471,1.381-.063,4.281,2.134,5.494.8.442,2.029.827,3.244,1.444a43.167,43.167,0,0,0-6.633,2.063l-2.2-.581c.923-.768,2.421-1.309,2.044-2.987-.554-2.465-4.835-1.536-7.786-4.487A11.773,11.773,0,0,1,9.21,28.13a20.109,20.109,0,0,0-2.077,12.4c-.035,0-.069-.007-.1-.007a6.7,6.7,0,0,0-2.686.564A22.971,22.971,0,1,1,50,37.473Zm-17.231,6.7-5.61,2.579.087-1.222,3.634-1.641c-.518-.037-1.055-.051-1.592-.051-2.008,0-5.4,1.017-9.153,2.506L8.1,43.165a4.2,4.2,0,0,0-3.307.5l-.592.372a.934.934,0,0,0-.012,1.574l7.234,4.693c-1.728.884-3.368,1.781-4.813,2.639L2.9,50.982a2.335,2.335,0,0,0-1.96-.1l-.351.141A.934.934,0,0,0,.12,52.344l2.045,3.633h0c-.772.664-1.211,1.214-1.211,1.6,0,1.14,1.4,1.425,2.64,1.425,2.206,0,31.337-6.67,31.337-12.713C34.932,45.088,34.114,44.489,32.769,44.169Zm-12.283,11.8,6.41-2.258a.467.467,0,0,1,.619.386l.562,4.805a2.8,2.8,0,0,1-1.6,2.866l-.6.279a.934.934,0,0,1-1.095-.23l-4.489-5.1A.467.467,0,0,1,20.486,55.967Z" transform="translate(80 2155.498)"/>
  </g>
</svg>
