<svg xmlns="http://www.w3.org/2000/svg" viewBox="0 0 60 60">
  <defs>
    <style>
      .cls-1 {
        fill: #fff;
      }

      .cls-2 {
        fill: #e00c00;
      }
    </style>
  </defs>
  <g id="Group_533" data-name="Group 533" transform="translate(-475 -2164)">
    <circle id="Ellipse_19" data-name="Ellipse 19" class="cls-1" cx="30" cy="30" r="30" transform="translate(475 2164)"/>
    <path id="Path_170" data-name="Path 170" class="cls-2" d="M53.278,27.778l-.759-1.033a3.254,3.254,0,0,1-.03-3.8l.739-1.043A3.248,3.248,0,0,0,52.1,17.157L50.97,16.55A3.25,3.25,0,0,1,49.3,13.138l.213-1.266a3.257,3.257,0,0,0-3.078-3.8l-1.276-.051a3.248,3.248,0,0,1-2.987-2.349l-.354-1.235A3.258,3.258,0,0,0,37.4,2.355l-1.174.506a3.256,3.256,0,0,1-3.716-.82l-.85-.952a3.258,3.258,0,0,0-4.89.03l-.84.962a3.252,3.252,0,0,1-3.7.871l-1.185-.486a3.255,3.255,0,0,0-4.384,2.157l-.334,1.235a3.255,3.255,0,0,1-2.956,2.389L12.1,8.319a3.257,3.257,0,0,0-3.017,3.837l.233,1.255A3.258,3.258,0,0,1,7.7,16.844l-1.124.618A3.26,3.26,0,0,0,5.52,22.23l.759,1.033a3.254,3.254,0,0,1,.03,3.8L5.57,28.1a3.248,3.248,0,0,0,1.124,4.749l1.134.607A3.25,3.25,0,0,1,9.5,36.87l-.213,1.266a3.257,3.257,0,0,0,3.078,3.8l1.276.051a3.248,3.248,0,0,1,2.987,2.349l.354,1.235A3.258,3.258,0,0,0,21.4,47.653l1.174-.506a3.256,3.256,0,0,1,3.716.82l.85.952a3.254,3.254,0,0,0,4.88-.041l.84-.962a3.252,3.252,0,0,1,3.7-.871l1.185.486a3.255,3.255,0,0,0,4.384-2.157l.334-1.235a3.255,3.255,0,0,1,2.956-2.389l1.276-.071A3.257,3.257,0,0,0,49.7,37.842l-.233-1.255a3.258,3.258,0,0,1,1.62-3.432l1.124-.618A3.243,3.243,0,0,0,53.278,27.778Zm-17.85,5.528a6.838,6.838,0,0,1-3.5,2.248.977.977,0,0,0-.85,1.114c.03.618,0,1.245,0,1.863a.761.761,0,0,1-.83.861q-1,.03-2,0a.811.811,0,0,1-.871-.911c-.01-.456-.01-.911-.01-1.357-.01-1-.04-1.043-1-1.195a12.41,12.41,0,0,1-3.564-1.023c-.881-.425-.972-.648-.719-1.579.192-.688.375-1.387.6-2.065.253-.79.466-.891,1.195-.516a11.556,11.556,0,0,0,3.959,1.185,4.877,4.877,0,0,0,2.6-.344,2.02,2.02,0,0,0,.486-3.544,6.378,6.378,0,0,0-1.478-.871,34.6,34.6,0,0,1-4.05-1.822c-2.076-1.245-3.392-2.946-3.24-5.477a6.034,6.034,0,0,1,4.4-5.589c1.083-.395,1.083-.375,1.093-1.509V11.629c.02-.85.162-1,1.012-1.023.263-.01.526,0,.79,0,1.8,0,1.8,0,1.812,1.8.01,1.276,0,1.286,1.276,1.478a11.336,11.336,0,0,1,2.8.84.825.825,0,0,1,.537,1.093c-.223.78-.435,1.569-.688,2.339-.233.729-.466.84-1.174.5a8.983,8.983,0,0,0-4.445-.881,3.39,3.39,0,0,0-1.185.243A1.675,1.675,0,0,0,27.966,21,7.714,7.714,0,0,0,29.9,22.088a34.385,34.385,0,0,1,3.523,1.59A6.359,6.359,0,0,1,35.428,33.306Z" transform="translate(475.105 2169)"/>
  </g>
</svg>
