<svg xmlns="http://www.w3.org/2000/svg" viewBox="0 0 50 45.02">
  <defs>
    <style>
      .cls-1 {
        fill: #e00c00;
      }
    </style>
  </defs>
  <g id="_852163" data-name="852163" transform="translate(0 -51)">
    <g id="Group_498" data-name="Group 498" transform="translate(24.31 52.781)">
      <g id="Group_497" data-name="Group 497">
        <path id="Path_173" data-name="Path 173" class="cls-1" d="M262.1,69.518c-5.959-2.2-12.02,9.065-13.125,15.7a1.45,1.45,0,0,0,1.143,1.729,1.469,1.469,0,0,0,1.728-1.172c.088-.41.176-.791.293-1.2l2.582.947-4.572,12.217c1.051.008,2.074.048,3.077.11l4.245-11.32,2.579.945a7.9,7.9,0,0,1-.557,1.113,1.491,1.491,0,0,0,.586,1.992A1.465,1.465,0,0,0,262.069,90C265.419,83.671,268.106,71.67,262.1,69.518Z" transform="translate(-248.939 -69.239)"/>
      </g>
    </g>
    <g id="Group_500" data-name="Group 500" transform="translate(0 84.203)">
      <g id="Group_499" data-name="Group 499">
        <path id="Path_174" data-name="Path 174" class="cls-1" d="M48.535,399.887H46.842C45.4,394.788,36.551,391,25.1,391s-20.4,3.788-21.842,8.887H1.563a1.468,1.468,0,1,0,0,2.93H48.535a1.465,1.465,0,0,0,0-2.93Z" transform="translate(0 -391)"/>
      </g>
    </g>
    <g id="Group_504" data-name="Group 504" transform="translate(40.949 56.662)">
      <g id="Group_503" data-name="Group 503">
        <path id="Path_176" data-name="Path 176" class="cls-1" d="M426.594,115.224a18.739,18.739,0,0,0-4.7-6.242c.891,3.725.414,8.628-1.428,13.663a22.452,22.452,0,0,1-1.145,2.693l5.6,2.044c-.147.469-.264.938-.44,1.406a1.466,1.466,0,0,0,.879,1.875,1.481,1.481,0,0,0,1.875-.879,19.381,19.381,0,0,0,.762-2.842v-.059A18.651,18.651,0,0,0,426.594,115.224Z" transform="translate(-419.322 -108.982)"/>
      </g>
    </g>
    <g id="Group_506" data-name="Group 506" transform="translate(12.982 51.909)">
      <g id="Group_505" data-name="Group 505">
        <path id="Path_177" data-name="Path 177" class="cls-1" d="M142.86,62.079c-4.317,2.017-7.814,6.083-8.613,8.086,0,.244-.693,1.2-1.231,2.666a1.468,1.468,0,0,0,.879,1.875,1.444,1.444,0,0,0,1.875-.879c.176-.469.44-.879.645-1.318l5.5,2.009c1-4.549,4.325-11.081,8.574-14.205A19.124,19.124,0,0,0,142.86,62.079Z" transform="translate(-132.933 -60.313)"/>
      </g>
    </g>
    <circle id="Ellipse_20" data-name="Ellipse 20" class="cls-1" cx="5.615" cy="5.615" r="5.615" transform="translate(0.977 51)"/>
  </g>
</svg>
