<svg xmlns="http://www.w3.org/2000/svg" viewBox="0 0 206.275 22.016">
  <defs>
    <style>
      .cls-1 {
        fill: #fa0606;
      }

      .cls-2 {
        fill: #fff;
      }
    </style>
  </defs>
  <g id="logo-meupatrocinio-02" transform="translate(0 0.093)">
    <path id="Path_14" data-name="Path 14" class="cls-1" d="M21.845,23.578c-.74.212-3.015-.423-5.236,0l-.053-.476a1.074,1.074,0,0,0,1.111-1.269L16.873,8.4l-6.03,14.916c-.159.476-.37.476-.582,0L4.443,8.45,3.279,21.832A1.074,1.074,0,0,0,4.39,23.1l-.053.476c-2.221-.423-3.6.212-4.337,0V23.1c1.111.053,2.063-.37,2.169-1.64L3.438,6.652C3.544,5.277,3.174,4.7,1.322,4.536V4.06c.529-.212,2.116.423,3.7,0a10.441,10.441,0,0,0,.793,2.38c1.167,2.86,5.24,13.435,5.24,13.435S15.974,7.393,16.4,6.493a10.784,10.784,0,0,0,.688-2.433c1.534.423,3.174-.212,3.7,0v.529c-1.851.159-2.169.688-2.01,2.116l.952,14.757c.053,1.269,1.058,1.693,2.169,1.64ZM33.9,20.986a21.789,21.789,0,0,1-.264,2.539H23.59V23.1c.9.053,1.851-.212,1.851-1.322l.053-13.541a1.173,1.173,0,0,0-1.322-1.322V6.493h9.045c0,.582,0,1.64-.053,2.274l-.37-.159a1.082,1.082,0,0,0-1.217-1.322H27.5v6.77h4.443c.582,0,.846-.212.9-.793h.423c0,.264-.053.9-.053,1.375a15.868,15.868,0,0,1,0,1.587h-.476c.053-.952-.212-1.375-1.111-1.375H27.5v6.241a1.242,1.242,0,0,0,1.428,1.428h2.8c1.322,0,1.693-.635,1.8-1.693ZM51.518,6.811c-.741,0-1.217.106-1.217.952V18.447a5.408,5.408,0,0,1-5.765,5.4c-4.866,0-6.664-1.745-6.664-5.448L37.924,8.08a1.159,1.159,0,0,0-1.269-1.322V6.335a19.833,19.833,0,0,1,2.221.106A11.988,11.988,0,0,1,41.1,6.335v.423A1.159,1.159,0,0,0,39.828,8.08l.053,10c0,3.438,1.64,4.972,4.919,4.972a4.3,4.3,0,0,0,4.39-4.5V7.763c0-.793-.529-.952-1.269-.952V6.388a10.774,10.774,0,0,1,1.8.053,10.774,10.774,0,0,1,1.8-.053v.423Z" transform="translate(0 -1.936)"/>
    <path id="Path_15" data-name="Path 15" class="cls-2" d="M112.143,12.7l.212-.529c4.39,1.534,5.924-1.428,5.924-4.39a4.8,4.8,0,0,0-4.866-5.131,7.269,7.269,0,0,0-1.64.212l.053,15.868c0,2.063,1,2.433,2.01,2.38l-.053.423a21.918,21.918,0,0,1-3.015-.106,22.116,22.116,0,0,1-3.015.106l-.053-.423c1,.106,1.957-.264,1.957-1.534l.053-15.5c0-1.111-.582-1.534-1.322-1.534V2.124a22.907,22.907,0,0,1,2.38.106c1.058,0,2.169-.264,3.755-.264,3.808,0,5.607,2.486,5.607,5.183C120.236,11.381,116.586,14.66,112.143,12.7Zm23.114,8.886c-.635.159-2.592-.37-4.6,0l-.106-.423c.74-.053,1-.529.793-1.111l-1.9-5.183H124.1l-1.9,5.183c-.212.635.053,1.058.793,1.111l-.106.423c-1.957-.37-3.015.159-3.7,0v-.423c.688.053,1.481,0,2.01-1.428l5.765-15.6c.159-.476.37-.476.529,0L133.3,19.791c.529,1.428,1.164,1.428,1.9,1.428Zm-6.136-7.617-2.327-6.4-2.327,6.4Zm17.614-10.2a12.849,12.849,0,0,1-.264,1.481,17.5,17.5,0,0,1-.212,1.745h-.37c.106-.793-.053-1.587-.952-1.587h-4.179l.053,14.493c0,1.111.952,1.428,1.851,1.322l-.053.423c-.476.106-1.693-.106-2.856-.106a20.5,20.5,0,0,1-2.909.106l-.053-.423c.952.106,1.851-.212,1.851-1.322L138.7,5.4h-4.337c-.9,0-1.269.793-1.481,1.587l-.37-.053c0-.37.264-1.375.317-1.8.053-.582.053-1.111.053-1.322h.37c.053.476.159.74.688.74h11.478c.582,0,.9-.264.952-.74Zm16.132,17.878c-1.64.264-3.279.212-4.6-1.481-1.375-1.745-2.539-3.6-4.073-5.818a6.3,6.3,0,0,1-2.8-.053v4.866c0,1.8.952,2.169,1.9,2.063l-.053.423c-.476.106-1.745-.106-2.909-.106a20.5,20.5,0,0,1-2.909.106v-.423c.952.106,1.851-.212,1.851-1.322l.053-13.646a1.159,1.159,0,0,0-1.269-1.322V4.452c.529-.053,1.217.053,2.221.053s2.063-.212,3.6-.212c3.6,0,4.972,2.221,4.972,4.337a5.933,5.933,0,0,1-2.962,4.919c1.217,1.8,3.015,4.337,4.284,5.924,1,1.217,1.64,1.8,2.539,1.745ZM152.923,4.928a5.949,5.949,0,0,0-1.534.212l.053,8.463c4.284.952,5.66-1.269,5.66-4.073C157.1,6.938,155.462,4.928,152.923,4.928Zm19.57,16.979c-4.707,0-9.256-3.121-9.256-8.78,0-5.924,4.972-8.992,9.256-8.992,4.76,0,9.309,3.121,9.309,8.78.054,5.924-4.971,8.991-9.308,8.991ZM172.07,4.928c-4.179,0-6.664,3.121-6.664,7.934,0,4.126,3.226,8.2,7.617,8.2,4.178,0,6.664-3.015,6.664-7.881C179.687,9.159,176.461,4.928,172.07,4.928Zm28.615,3.385-.423-.053c.053-2.01-1.745-3.279-5.871-3.279-4.231,0-7.3,2.592-7.3,7.828,0,4.655,3.015,8.357,7.511,8.357,4.02,0,5.5-1.217,5.871-3.65l.476.053c-.053,1.058-.317,2.645-.423,3.491a23,23,0,0,1-2.962.635,20.919,20.919,0,0,1-3.279.212c-5.765,0-9.362-3.7-9.362-8.886,0-4.76,4.073-8.78,9.574-8.78a18.568,18.568,0,0,1,4.181.477c.738.158,1.532.422,2.431.581-.159.9-.265,2.009-.424,3.014ZM209.2,21.589c-.476.106-1.745-.106-2.909-.106a20.5,20.5,0,0,1-2.909.106v-.476c.952.106,1.851-.212,1.851-1.322l.053-13.646c0-1-.529-1.322-1.269-1.322v-.37a19.834,19.834,0,0,1,2.221.106,11.988,11.988,0,0,1,2.222-.106v.37a1.159,1.159,0,0,0-1.269,1.322l.053,13.646c0,1.111.952,1.428,1.9,1.322Zm-4.5-18.46-.159-.264L207.4.062c.264-.264.529-.212.9.317.423.582.317.846,0,1Zm23.167,1.745c-.741,0-1.428.106-1.428.952v15.6c0,.37-.264.317-.476.053l-11.8-14.122.053,12.853c0,.793.688.952,1.428.952v.423a16.275,16.275,0,0,1-2.221-.053,14.852,14.852,0,0,1-2.169.053v-.423c.9,0,1.745-.159,1.745-1.111,0,0,.053-12.483.053-13.329,0-1.217-.423-1.745-2.01-1.8V4.5c.476-.159,2.169.317,3.7,0a3.885,3.885,0,0,0,.74,1.375c.529.635,9.732,11.848,9.732,11.848L225.175,5.88c0-.846-.635-1-1.428-.952V4.5a13.383,13.383,0,0,1,2.01.053,13.524,13.524,0,0,1,2.01-.053Zm7.881,16.714c-.476.106-1.745-.106-2.909-.106a20.5,20.5,0,0,1-2.909.106v-.476c.952.106,1.851-.212,1.851-1.322l.053-13.646c0-1-.529-1.322-1.269-1.322v-.37a19.834,19.834,0,0,1,2.221.106,11.988,11.988,0,0,1,2.222-.106v.37a1.159,1.159,0,0,0-1.269,1.322l.053,13.646c0,1.111.952,1.428,1.9,1.322Zm11.954.317c-4.707,0-9.256-3.121-9.256-8.78,0-5.924,4.972-8.992,9.256-8.992,4.76,0,9.309,3.121,9.309,8.78.005,5.926-4.967,8.993-9.3,8.993Zm-.476-16.979c-4.179,0-6.664,3.121-6.664,7.934,0,4.126,3.226,8.2,7.617,8.2,4.178,0,6.664-3.015,6.664-7.881.005-4.02-3.222-8.251-7.612-8.251Z" transform="translate(-50.735)"/>
  </g>
</svg>
