<?xml version="1.0" encoding="utf-8"?>
<!-- Generator: Adobe Illustrator 19.2.1, SVG Export Plug-In . SVG Version: 6.00 Build 0)  -->
<svg version="1.1" id="Layer_1" xmlns="http://www.w3.org/2000/svg" xmlns:xlink="http://www.w3.org/1999/xlink" x="0px" y="0px"
	 viewBox="0 0 435.5 72.7" style="enable-background:new 0 0 435.5 72.7;" xml:space="preserve" preserveAspectRatio="xMinYMid meet">
<style type="text/css">
	.st0{fill:#BBBBBB;}
</style>
<g>
	<path class="st0" d="M134.9,18.1v9.1c0,0,3.7-9.3,10.8-9.3c3.3,0,4.5,0.9,4.5,0.9l-2.6,12c-0.1,0.4-0.3,0.4-0.6,0.5
		c-3.7-0.5-8.5-0.6-10.7,3.8c-1.2,2.3-1.2,5.2-1.3,7.7v23.7c0,2.5,0.6,5.1,0.6,5.1h-17c0,0,0.7-2.6,0.7-5.1v-32
		c-0.1-2.4-0.1-5.1-0.9-7.3c0.2-0.8,1-0.8,1.4-1.1l14.6-8.3C134.6,17.6,134.9,17.8,134.9,18.1z"/>
	<path class="st0" d="M379.9,18.1v9.1c0,0,3.7-9.3,10.8-9.3c3.3,0,4.5,0.9,4.5,0.9l-2.6,12c-0.1,0.4-0.3,0.4-0.6,0.5
		c-3.7-0.5-8.5-0.6-10.7,3.8c-1.2,2.3-1.2,5.2-1.3,7.7v23.7c0,2.5,0.6,5.1,0.6,5.1h-17c0,0,0.7-2.6,0.7-5.1v-32
		c-0.1-2.4-0.1-5.1-0.9-7.3c0.3-0.8,1-0.8,1.4-1.1l14.6-8.3C379.6,17.6,379.9,17.8,379.9,18.1z"/>
	<path class="st0" d="M113.8,64.3c-1.1-0.4-1.9-1.6-2.2-2.9l-3.5-17.6c-1-4.9-1.7-9.8-3.4-14.4c-4.6-11.2-17-12.4-26.3-9.7
		c-0.6,0.1-1.3,0.4-1.9,0.7c-0.6,0.3-1.1,0.6-1.1,0.6l0,0l0,0c-0.1,0.1-0.1,0.2-0.1,0.3v6.5c0,0.3,0.3,0.5,0.5,0.3
		c3.2-1.4,6.8-1.9,10.1-0.3c3,1.5,4.4,5.3,4.7,8.8c0,0.7,0.5,1.4,0,2c-4.8,0.8-9.4,1.9-13.4,4.9c-4.3,3.2-7.2,8.7-6.6,14.9
		c0.2,5.9,4.5,11.1,9.2,12.9c6.2,2.3,14,1.6,18.6-4c0.6-0.6,1,0.4,1.4,0.8c4.2,4.6,9.9,3.5,15.5,3.5l0.2-0.2v-6.6
		C115.5,64.1,114.4,64.6,113.8,64.3z M89.5,63.3c-2.7-1.6-3.9-5-3.8-8.3c0-3.8,1.9-7.4,4.8-9.2c0.5-0.2,1.5-1.1,1.8-0.1l2.6,12
		l1,3.9C94.3,63.6,91.6,64.3,89.5,63.3z"/>
	<path class="st0" d="M334.4,64.3c-1.1-0.4-1.9-1.6-2.2-2.9l-3.5-17.6c-1-4.9-1.7-9.8-3.4-14.4c-4.6-11.2-17-12.4-26.3-9.7
		c-0.6,0.1-1.3,0.4-1.9,0.7c-0.6,0.3-1.1,0.6-1.1,0.6l0,0l0,0c-0.1,0.1-0.1,0.2-0.1,0.3v6.5c0,0.3,0.3,0.5,0.5,0.3
		c3.2-1.4,6.8-1.9,10.1-0.3c3,1.5,4.4,5.3,4.7,8.8c0,0.7,0.5,1.4,0,2c-4.8,0.8-9.4,1.9-13.4,4.9c-4.3,3.2-7.2,8.7-6.6,14.9
		c0.2,5.9,4.5,11.1,9.2,12.9c6.2,2.3,14,1.6,18.6-4c0.6-0.6,1,0.4,1.4,0.8c4.2,4.6,9.9,3.5,15.5,3.5l0.2-0.2v-6.6
		C336.1,64.1,335,64.6,334.4,64.3z M310.1,63.3c-2.7-1.6-3.9-5-3.8-8.3c0-3.8,1.9-7.4,4.8-9.2c0.5-0.2,1.5-1.1,1.8-0.1l2.6,12l1,3.9
		C314.9,63.6,312.2,64.3,310.1,63.3z"/>
	<path class="st0" d="M0.3,26.8C0,26.9,0,27.3,0.2,27.5c0,0,0.4,1,0.4,4.2v34.9c0,2.6-0.4,5.2-0.4,5.2h16.4c0,0-0.5-2.7-0.5-5.1v-25
		c0.1-3.2,0.4-6.8,3-8.7c1.2-0.8,2.8-1.1,4.2-0.5c1.6,0.7,2.3,2.7,2.4,4.5v29.6c0,2.5-0.5,5.1-0.5,5.1h16.4c0,0-0.5-2.6-0.5-5.1
		V47.1v-4.5c0-5.9,1.6-8.3,3.1-9.5s3.3-1.4,4.8-0.6c1.7,1.1,1.8,3.3,1.8,5.3v28.8c0,2.5-0.5,5.1-0.5,5.1h16.5c0,0-0.5-2.6-0.5-5
		V32.8c0-1.6,0-3.9-0.4-5.8c-0.8-3.5-3.7-6.4-6.7-7.2c-6.7-1.7-13.5,0.6-17.5,7.7c-2.2-5.7-5.5-7.8-8.9-8.2
		c-6.6-1-11.8,1.4-16.8,8.6l0,0v-9.1c0-0.3-0.3-0.5-0.5-0.3L0.3,26.8z"/>
	<g>
		<g>
			<path class="st0" d="M168.6,5.8c0.9,2.8,0.5,6.4-1.3,8.5c-2.8,3.3-7.7,4-11.4,2.6c-2.2-1-4.5-3.2-4.9-6c-0.5-2.8,0.3-6,2.6-8
				c2.9-3,8.1-3.3,11.6-1.3C166.5,2.5,167.9,4,168.6,5.8z"/>
		</g>
		<path class="st0" d="M168,27.3v-9.1c0-0.3-0.3-0.5-0.5-0.3L152,26.8v39.8c0,2.5-0.7,5.1-0.7,5.1h17.3c0,0-0.6-2.6-0.6-5.1V27.3z"
			/>
	</g>
	<g>
		<g>
			<path class="st0" d="M356.4,5.8c0.9,2.8,0.5,6.4-1.3,8.5c-2.8,3.3-7.7,4-11.4,2.6c-2.2-1-4.5-3.2-4.9-6c-0.5-2.8,0.3-6,2.6-8
				c2.9-3,8.1-3.3,11.6-1.3C354.3,2.5,355.7,4,356.4,5.8z"/>
		</g>
		<path class="st0" d="M355.8,27.3v-9.1c0-0.3-0.3-0.5-0.5-0.3l-15.4,8.8v39.8c0,2.5-0.7,5.1-0.7,5.1h17.3c0,0-0.6-2.6-0.6-5.1
			L355.8,27.3z"/>
	</g>
	<path class="st0" d="M188.9,44.8c-0.4-5.1,0.2-11.2,1.4-13.7s2.6-3.9,4.4-3.9c2.2,0,4.2,2.3,4.8,4.6c1,2.8,1.4,6,1.4,9.2
		c0.1,0.8-0.7,0.9-1.1,1.1l-10.4,3.3C189,45.5,188.9,45.1,188.9,44.8z M210.9,61.6c0-0.3-0.3-0.5-0.5-0.3l-1.7,1
		c-3.2,1.7-6.9,2.6-10.3,1.6c-4.3-1.3-6.7-5.7-7.9-9.9c-0.2-0.6-0.5-1.4,0.1-1.7l25.4-8.6c0-2-0.8-12.4-6.9-18.9
		c-6.1-6.5-15.3-7.5-22.8-4.3c-5.2,2.1-9.5,7.7-11.4,13.5c-3.8,11.2-2,24.6,6,32.8c6.8,6.9,17.4,7.2,25.9,4.5
		c1.3-0.6,2.8-1.1,4.2-1.9v-6.3l0,0v-1.5H210.9z"/>
	<path class="st0" d="M408.6,44.8c-0.4-5.1,0.2-11.2,1.4-13.7c1.2-2.5,2.6-3.9,4.4-3.9c2.2,0,4.2,2.3,4.8,4.6c1,2.8,1.4,6,1.4,9.2
		c0.1,0.8-0.7,0.9-1.1,1.1l-10.4,3.3C408.6,45.5,408.6,45.1,408.6,44.8z M430.5,61.6c0-0.3-0.3-0.5-0.5-0.3l-1.7,1
		c-3.2,1.7-6.9,2.6-10.3,1.6c-4.3-1.3-6.7-5.7-7.9-9.9c-0.2-0.6-0.5-1.4,0.1-1.7l25.4-8.6c0-2-0.8-12.4-6.9-18.9s-15.3-7.5-22.8-4.3
		c-5.2,2.1-9.5,7.7-11.4,13.5c-3.8,11.2-2,24.6,6,32.8c6.8,6.9,17.4,7.2,25.9,4.5c1.3-0.6,2.8-1.1,4.2-1.9v-6.3l0,0v-1.5H430.5z"/>
	<path class="st0" d="M286.5,0.4c0-0.3-0.3-0.5-0.5-0.3l-16.3,9.5c-0.3,0.1-0.3,0.5-0.1,0.6c0,0,1.3,1.9,1.3,5.1c0,0,0,48.8,0,51.3
		s-0.7,5.1-0.7,5.1h17c0,0-0.6-2.6-0.6-5.1L286.5,0.4z"/>
	<path class="st0" d="M265.5,62.6l-0.9,0.3c-2,0.6-5.6,1.2-8.7-0.6c-3.9-2.2-6.6-9-7.2-14.6c-1.4-11.9,1.9-18.2,6.4-20
		c3.4-1.4,7.3,0,9.1,0.8l0,0l0.5,0.2c0.3,0.1,0.5,0.1,0.5-0.2V28v-1.6v-6c0,0-8.1-4.2-17-1.1s-13.8,11.4-15.1,20.1
		c-1.6,7.9-0.2,16.6,3.4,23.2c4.7,8.2,13.3,11,21.6,9.9c2.7-0.6,7.9-2.1,7.9-2.1v-7.5C266,62.6,265.8,62.5,265.5,62.6z"/>
</g>
</svg>
