<svg xmlns="http://www.w3.org/2000/svg" viewBox="0 0 60 60">
  <defs>
    <style>
      .cls-1 {
        fill: #fff;
      }

      .cls-2 {
        fill: #e00c00;
      }
    </style>
  </defs>
  <g id="Group_537" data-name="Group 537" transform="translate(-876 -2402)">
    <circle id="Ellipse_17" data-name="Ellipse 17" class="cls-1" cx="30" cy="30" r="30" transform="translate(876 2402)"/>
    <g id="_126425" data-name="126425" transform="translate(881 2374.329)">
      <g id="Group_495" data-name="Group 495" transform="translate(0 36.671)">
        <path id="Path_163" data-name="Path 163" class="cls-2" d="M33,308.624v8.1a.905.905,0,0,0,.9.9H40.17a.905.905,0,0,0,.9-.9V302.471l-4.551,4.551A5.52,5.52,0,0,1,33,308.624Z" transform="translate(-29.61 -275.167)"/>
        <path id="Path_164" data-name="Path 164" class="cls-2" d="M142,301.471v14.361a.905.905,0,0,0,.9.9h6.266a.905.905,0,0,0,.9-.9v-8.454a5.462,5.462,0,0,1-3.77-1.6Z" transform="translate(-127.413 -274.27)"/>
        <path id="Path_165" data-name="Path 165" class="cls-2" d="M251,281.27v9.348a.905.905,0,0,0,.9.9h6.266a.905.905,0,0,0,.9-.9V273.371l-7.18,7.18A5.378,5.378,0,0,1,251,281.27Z" transform="translate(-225.216 -249.056)"/>
        <path id="Path_166" data-name="Path 166" class="cls-2" d="M367.468,170.171,360,177.639v20.38a.905.905,0,0,0,.9.9h6.266a.905.905,0,0,0,.9-.9V170.736c-.205-.175-.36-.329-.473-.431Z" transform="translate(-323.019 -156.457)"/>
        <path id="Path_167" data-name="Path 167" class="cls-2" d="M49.575,37.154a1.746,1.746,0,0,0-1.325-.483h-.164c-2.917.134-5.824.277-8.742.411A1.887,1.887,0,0,0,38,37.544a1.531,1.531,0,0,0-.318.473,1.511,1.511,0,0,0,.462,1.828l.729.74c.5.514,1.017,1.027,1.531,1.531L22.774,59.753l-7.92-7.92a2.517,2.517,0,0,0-3.565,0L.74,62.372a2.517,2.517,0,0,0,0,3.565l.473.473a2.517,2.517,0,0,0,3.565,0l8.29-8.29,7.92,7.92a2.53,2.53,0,0,0,3.575,0L44.449,46.152l2.25,2.239a1.7,1.7,0,0,0,1.2.637,1.487,1.487,0,0,0,.719-.2,1.956,1.956,0,0,0,.431-.318,2.089,2.089,0,0,0,.544-1.448c.082-1.89.175-3.78.267-5.681L50,38.541A1.768,1.768,0,0,0,49.575,37.154Z" transform="translate(0 -36.671)"/>
      </g>
    </g>
  </g>
</svg>
