<svg id="Group_558" data-name="Group 558" xmlns="http://www.w3.org/2000/svg" viewBox="0 0 50 50">
  <defs>
    <style>
      .cls-1 {
        fill: #e00c00;
      }

      .cls-2 {
        fill: none;
        stroke: #e00c00;
        stroke-linecap: round;
        stroke-miterlimit: 10;
        stroke-width: 4px;
      }
    </style>
  </defs>
  <g id="Group_551" data-name="Group 551">
    <path id="Path_178" data-name="Path 178" class="cls-1" d="M25,4a2.946,2.946,0,0,1,3,3,3,3,0,0,1-6,0,2.946,2.946,0,0,1,3-3m0-4h0a6.957,6.957,0,0,0-7,7h0a6.957,6.957,0,0,0,7,7h0a6.957,6.957,0,0,0,7-7h0a6.957,6.957,0,0,0-7-7Z"/>
  </g>
  <g id="Group_552" data-name="Group 552">
    <path id="Path_179" data-name="Path 179" class="cls-1" d="M25,40a3,3,0,1,1-3,3,2.946,2.946,0,0,1,3-3m0-4h0a6.957,6.957,0,0,0-7,7h0a6.957,6.957,0,0,0,7,7h0a6.957,6.957,0,0,0,7-7h0a6.957,6.957,0,0,0-7-7Z"/>
  </g>
  <g id="Group_553" data-name="Group 553">
    <path id="Path_180" data-name="Path 180" class="cls-1" d="M43,40a3,3,0,1,1-3,3,2.946,2.946,0,0,1,3-3m0-4h0a6.957,6.957,0,0,0-7,7h0a6.957,6.957,0,0,0,7,7h0a6.957,6.957,0,0,0,7-7h0a6.957,6.957,0,0,0-7-7Z"/>
  </g>
  <g id="Group_554" data-name="Group 554">
    <path id="Path_181" data-name="Path 181" class="cls-1" d="M7,40a3,3,0,0,1,0,6,3,3,0,0,1,0-6m0-4H7a6.957,6.957,0,0,0-7,7H0a6.957,6.957,0,0,0,7,7H7a6.957,6.957,0,0,0,7-7h0a6.957,6.957,0,0,0-7-7Z"/>
  </g>
  <g id="Group_555" data-name="Group 555">
    <line id="Line_4" data-name="Line 4" class="cls-2" y2="22" transform="translate(25 14)"/>
  </g>
  <g id="Group_556" data-name="Group 556">
    <line id="Line_5" data-name="Line 5" class="cls-2" y2="11" transform="translate(43 25)"/>
  </g>
  <g id="Group_557" data-name="Group 557">
    <line id="Line_6" data-name="Line 6" class="cls-2" y2="11" transform="translate(7 25)"/>
  </g>
  <line id="Line_7" data-name="Line 7" class="cls-2" x2="36" transform="translate(7 25)"/>
</svg>
