<svg xmlns="http://www.w3.org/2000/svg" viewBox="0 0 50 47.863">
  <defs>
    <style>
      .cls-1 {
        fill: #e00c00;
      }
    </style>
  </defs>
  <g id="_126439" data-name="126439" transform="translate(0 -10.35)">
    <g id="Group_496" data-name="Group 496" transform="translate(0 10.35)">
      <path id="Path_168" data-name="Path 168" class="cls-1" d="M157.214,40.837a8.456,8.456,0,0,1-2.932-3.345,15.3,15.3,0,0,0,4.316-10.51c0-9.168-8.579-16.632-19.12-16.632-8.714,0-16.085,5.1-18.377,12.048a23.974,23.974,0,0,1,4.346-.836c2.457-4.439,7.815-7.537,14.031-7.537,8.517,0,15.455,5.813,15.455,12.957a12.164,12.164,0,0,1-5.358,9.8,18.034,18.034,0,0,1,.578,4.305,13.05,13.05,0,0,0,6.835.826A.584.584,0,0,0,157.214,40.837Z" transform="translate(-108.597 -10.35)"/>
      <path id="Path_169" data-name="Path 169" class="cls-1" d="M19.348,145.45C8.662,145.45,0,153.038,0,162.413a15.622,15.622,0,0,0,4.305,10.655,7.9,7.9,0,0,1-3.056,3.944.527.527,0,0,0,.206.97,11.4,11.4,0,0,0,7.392-1.342,21.2,21.2,0,0,0,10.51,2.726c10.686,0,19.348-7.588,19.348-16.963C38.685,153.049,30.023,145.45,19.348,145.45Z" transform="translate(0 -131.502)"/>
    </g>
  </g>
</svg>
